<?xml version="1.0" encoding="UTF-8"?>
<svg width="54px" height="79px" viewBox="0 0 54 79" version="1.1" xmlns="http://www.w3.org/2000/svg" xmlns:xlink="http://www.w3.org/1999/xlink">
    <!-- Generator: Sketch 49.3 (51167) - http://www.bohemiancoding.com/sketch -->
    <title>Slice 1</title>
    <desc>Created with Sketch.</desc>
    <defs></defs>
    <g id="Page-1" stroke="none" stroke-width="1" fill="none" fill-rule="evenodd">
        <g id="noun_730107_cc" fill="#000000" fill-rule="nonzero">
            <path d="M54,39.2487337 C54,38.0069222 53.0089182,37 51.7866421,37 C50.564366,37 49.5732842,38.0069222 49.5732842,39.2487337 C49.5732842,51.894648 39.4469756,62.1828043 27,62.1828043 C14.5530244,62.1828043 4.42671578,51.894648 4.42671578,39.2487337 C4.42671578,38.0069222 3.43563397,37 2.21335789,37 C0.991081815,37 0,38.0069222 0,39.2487337 C0,53.6159885 10.9306902,65.4313692 24.7866421,66.5801114 L24.7866421,76.7521526 C24.7866421,77.9930778 25.7777239,79 27,79 C28.2222761,79 29.2133579,77.9930778 29.2133579,76.7512663 L29.2133579,66.5801114 C43.0684374,65.4313692 54,53.6159885 54,39.2487337 Z" id="Shape"></path>
            <path d="M27,60 C38.0284713,60 47,50.9615639 47,39.8508451 L47,20.1491549 C47,9.03843608 38.0284713,0 27,0 C15.9715287,0 7,9.03843608 7,20.1491549 L7,39.8508451 C7,50.9615639 15.9715287,60 27,60 Z" id="Shape"></path>
        </g>
    </g>
</svg>